HIERARCHY
ROOT Hips
{
	OFFSET 0.000000 0.000000 0.000000
	CHANNELS 6 Xposition Yposition Zposition Zrotation Yrotation Xrotation 
	JOINT LHipJoint
	{
		OFFSET 0.000000 0.000000 0.000000
		CHANNELS 3 Zrotation Yrotation Xrotation
		JOINT LeftUpLeg
		{
			OFFSET 1.363060 -1.794630 0.839290
			CHANNELS 3 Zrotation Yrotation Xrotation
			JOINT LeftLeg
			{
				OFFSET 2.448110 -6.726130 0.000000
				CHANNELS 3 Zrotation Yrotation Xrotation
				JOINT LeftFoot
				{
					OFFSET 2.562200 -7.039590 0.000000
					CHANNELS 3 Zrotation Yrotation Xrotation
					JOINT LeftToeBase
					{
						OFFSET 0.157640 -0.433110 2.322550
						CHANNELS 3 Zrotation Yrotation Xrotation
						End Site
						{
							OFFSET 0.000000 0.000000 0.000000
						}
					}
				}
			}
		}
	}
	JOINT RHipJoint
	{
		OFFSET 0.000000 0.000000 0.000000
		CHANNELS 3 Zrotation Yrotation Xrotation
		JOINT RightUpLeg
		{
			OFFSET -1.305520 -1.794630 0.839290
			CHANNELS 3 Zrotation Yrotation Xrotation
			JOINT RightLeg
			{
				OFFSET -2.542530 -6.985550 0.000000
				CHANNELS 3 Zrotation Yrotation Xrotation
				JOINT RightFoot
				{
					OFFSET -2.568260 -7.056230 0.000000
					CHANNELS 3 Zrotation Yrotation Xrotation
					JOINT RightToeBase
					{
						OFFSET -0.164730 -0.452590 2.363150
						CHANNELS 3 Zrotation Yrotation Xrotation
						End Site
						{
							OFFSET 0.000000 0.000000 0.000000
						}
					}
				}
			}
		}
	}
	JOINT LowerBack
	{
		OFFSET 0.000000 0.000000 0.000000
		CHANNELS 3 Zrotation Yrotation Xrotation
		JOINT Spine
		{
			OFFSET 0.028270 2.035590 -0.193380
			CHANNELS 3 Zrotation Yrotation Xrotation
			JOINT Spine1
			{
				OFFSET 0.056720 2.048850 -0.042750
				CHANNELS 3 Zrotation Yrotation Xrotation
				JOINT Neck
				{
					OFFSET 0.000000 0.000000 0.000000
					CHANNELS 3 Zrotation Yrotation Xrotation
					JOINT Neck1
					{
						OFFSET -0.054170 1.746240 0.172020
						CHANNELS 3 Zrotation Yrotation Xrotation
						JOINT Head
						{
							OFFSET 0.104070 1.761360 -0.123970
							CHANNELS 3 Zrotation Yrotation Xrotation
							End Site
							{
								OFFSET 0.000000 0.000000 0.000000
							}
						}
					}
				}
				JOINT LeftShoulder
				{
					OFFSET 0.000000 0.000000 0.000000
					CHANNELS 3 Zrotation Yrotation Xrotation
					JOINT LeftArm
					{
						OFFSET 3.362410 1.200890 -0.311210
						CHANNELS 3 Zrotation Yrotation Xrotation
						JOINT LeftForeArm
						{
							OFFSET 4.983000 -0.000000 -0.000000
							CHANNELS 3 Zrotation Yrotation Xrotation
							JOINT LeftHand
							{
								OFFSET 3.483560 -0.000000 -0.000000
								CHANNELS 3 Zrotation Yrotation Xrotation
								JOINT LeftFingerBase
								{
									OFFSET 0.000000 0.000000 0.000000
									CHANNELS 3 Zrotation Yrotation Xrotation
									JOINT LeftHandIndex1
									{
										OFFSET 0.715260 -0.000000 -0.000000
										CHANNELS 3 Zrotation Yrotation Xrotation
										End Site
										{
											OFFSET 0.000000 0.000000 0.000000
										}
									}
								}
								JOINT LThumb
								{
									OFFSET 0.000000 0.000000 0.000000
									CHANNELS 3 Zrotation Yrotation Xrotation
									End Site
									{
										OFFSET 0.000000 0.000000 0.000000
									}
								}
							}
						}
					}
				}
				JOINT RightShoulder
				{
					OFFSET 0.000000 0.000000 0.000000
					CHANNELS 3 Zrotation Yrotation Xrotation
					JOINT RightArm
					{
						OFFSET -3.136600 1.374050 -0.404650
						CHANNELS 3 Zrotation Yrotation Xrotation
						JOINT RightForeArm
						{
							OFFSET -5.241900 -0.000000 -0.000000
							CHANNELS 3 Zrotation Yrotation Xrotation
							JOINT RightHand
							{
								OFFSET -3.444170 -0.000000 -0.000000
								CHANNELS 3 Zrotation Yrotation Xrotation
								JOINT RightFingerBase
								{
									OFFSET 0.000000 0.000000 0.000000
									CHANNELS 3 Zrotation Yrotation Xrotation
									JOINT RightHandIndex1
									{
										OFFSET -0.622530 -0.000000 -0.000000
										CHANNELS 3 Zrotation Yrotation Xrotation
										End Site
										{
											OFFSET 0.000000 0.000000 0.000000
										}
									}
								}
								JOINT RThumb
								{
									OFFSET 0.000000 0.000000 0.000000
									CHANNELS 3 Zrotation Yrotation Xrotation
									End Site
									{
										OFFSET 0.000000 0.000000 0.000000
									}
								}
							}
						}
					}
				}
			}
		}
	}
}
MOTION
Frames: 4
Frame Time: 0.008333
43.336195 17.188028 -18.304059 -50.543606 -80.284241 48.776342 2.703724 -0.434790 -1.391418 -13.980210 4.519822 -1.476375 0.534137 7.525781 20.828661 -1.936971 13.883300 -20.180145 0.078900 1.812300 4.987300 -4.026522 0.173554 -1.387025 29.277332 1.413911 -4.087979 -0.457323 -9.437031 25.531251 2.251407 -12.501628 -15.412312 -0.002400 -0.316300 0.869000 6.494560 -1.357984 -0.666728 1.694224 -2.245167 -0.826692 -0.741267 -1.098865 7.411500 -4.033145 -4.772887 -6.204313 6.772176 -7.396693 17.487015 0.965200 -3.106500 7.932000 -1.889244 -1.430558 -0.266692 -82.839066 -3.658704 22.195480 7.516686 -19.776027 -2.470187 -1.017790 -1.623191 -15.601594 12.600828 10.279005 2.858500 -7.125000 0.000000 0.000000 -11.698300 41.569000 1.005300 4.447595 2.055150 -0.721480 77.759801 -2.384550 17.120269 -10.014221 23.400084 -3.507127 1.470505 0.561958 -0.299526 -17.690964 -4.662663 1.804600 7.125000 0.000000 0.000000 6.265300 -35.427100 1.480800 
43.339406 17.188777 -18.305022 -49.989538 -80.244479 48.252584 2.700369 -0.437582 -1.391450 -13.996270 4.516625 -1.529594 0.531438 7.525722 20.818475 -1.930733 13.817795 -20.076336 0.078700 1.810100 4.981200 -4.023842 0.174063 -1.386473 29.242581 1.396913 -4.116026 -0.453433 -9.429004 25.507603 2.262157 -12.541717 -15.432843 -0.002100 -0.298600 0.820400 6.455738 -1.382363 -0.659076 1.696223 -2.274861 -0.827973 -0.725115 -1.114753 7.394413 -4.050658 -4.757942 -6.163641 6.792617 -7.379712 17.471141 0.982100 -3.100500 7.911300 -1.883030 -1.433773 -0.265062 -82.851892 -3.625612 22.200482 7.559391 -19.835845 -2.487802 -1.009661 -1.633039 -15.628453 12.532588 10.376228 2.869300 -7.125000 0.000000 0.000000 -11.786800 41.670800 0.983100 4.433656 2.054922 -0.722983 77.756294 -2.379820 17.278524 -10.205939 23.631970 -3.595410 1.482739 0.724096 -0.013110 -17.307616 -6.574052 2.466500 7.125000 0.000000 0.000000 6.828000 -37.578000 1.254400 
43.343365 17.189741 -18.306521 -49.594378 -80.194223 47.915389 2.697040 -0.442436 -1.390712 -13.985361 4.516264 -1.645233 0.531384 7.529975 20.818720 -1.950091 13.840305 -19.958899 0.073100 1.744400 4.799900 -4.019619 0.178856 -1.385373 29.235631 1.443922 -4.172135 -0.445007 -9.421823 25.475456 2.265723 -12.568581 -15.492889 -0.003300 -0.372800 1.024300 6.451295 -1.380552 -0.651441 1.693832 -2.269471 -0.832455 -0.721766 -1.112069 7.366302 -4.075637 -4.778369 -6.137542 6.816083 -7.411591 17.454738 1.003000 -3.118400 7.901900 -1.889910 -1.438625 -0.266283 -82.837578 -3.639866 22.278412 7.565331 -19.841318 -2.487986 -1.013076 -1.631576 -15.609455 12.563725 10.362959 2.872800 -7.125000 0.000000 0.000000 -11.753900 41.658700 0.983900 4.438362 2.055569 -0.718492 77.763871 -2.377033 17.100570 -10.008423 23.389311 -3.504700 1.471092 0.565369 -0.289679 -17.679150 -4.711775 1.821600 7.125000 0.000000 0.000000 6.280400 -35.481800 1.476000 
43.347218 17.191453 -18.308554 -49.290498 -80.149534 47.651768 2.694496 -0.444496 -1.389506 -13.968461 4.498810 -1.713529 0.529799 7.531472 20.816135 -1.940774 13.777138 -19.891708 0.075900 1.777100 4.890200 -4.017829 0.182643 -1.384732 29.245105 1.480405 -4.203356 -0.438391 -9.415706 25.450566 2.264887 -12.582999 -15.559184 -0.004300 -0.423600 1.163900 6.440983 -1.388524 -0.626246 1.696105 -2.277284 -0.837033 -0.709677 -1.117844 7.339502 -4.067789 -4.769662 -6.141206 6.818778 -7.399385 17.449951 1.000900 -3.111100 7.904000 -1.883138 -1.444963 -0.267601 -82.828340 -3.648619 22.338455 7.584330 -19.867054 -2.494923 -1.011757 -1.636653 -15.687172 12.562265 10.402883 2.883300 -7.125000 0.000000 0.000000 -11.763500 41.701800 0.972000 4.431427 2.062822 -0.721855 77.767187 -2.369792 17.184065 -10.126261 23.527270 -3.556837 1.475166 0.648572 -0.151347 -17.462720 -5.689797 2.161200 7.125000 0.000000 0.000000 6.580300 -36.582900 1.369500 
